<svg width="8" height="8" viewBox="0 0 8 8" fill="none" xmlns="http://www.w3.org/2000/svg">
<path d="M3.48778 0.371758C3.64884 -0.123932 4.35011 -0.123931 4.51117 0.371759L5.08663 2.14283C5.15865 2.36451 5.36523 2.5146 5.59832 2.5146H7.46054C7.98174 2.5146 8.19844 3.18155 7.77678 3.4879L6.27022 4.58249C6.08165 4.71949 6.00274 4.96234 6.07477 5.18402L6.65022 6.9551C6.81128 7.45079 6.24395 7.86298 5.82229 7.55663L4.31572 6.46204C4.12715 6.32504 3.8718 6.32504 3.68323 6.46204L2.17666 7.55663C1.755 7.86298 1.18767 7.45079 1.34872 6.95509L1.92418 5.18402C1.99621 4.96234 1.9173 4.71949 1.72873 4.58249L0.222166 3.4879C-0.199494 3.18155 0.0172107 2.5146 0.53841 2.5146H2.40063C2.63372 2.5146 2.8403 2.36451 2.91232 2.14283L3.48778 0.371758Z" fill="#F54748"/>
</svg>
