<svg width="32" height="32" viewBox="0 0 32 32" fill="none" xmlns="http://www.w3.org/2000/svg">
<path d="M4.83335 23.3334V23.8334H5.33335H7.33335C7.61973 23.8334 7.81952 23.9267 7.94647 24.0536C8.07341 24.1806 8.16669 24.3804 8.16669 24.6667C8.16669 24.9531 8.07341 25.1529 7.94647 25.2799C7.81952 25.4068 7.61973 25.5001 7.33335 25.5001H4.00002C3.71364 25.5001 3.51385 25.4068 3.38691 25.2799C3.25996 25.1529 3.16669 24.9531 3.16669 24.6667V7.33342C3.16669 7.04704 3.25996 6.84725 3.38691 6.7203C3.51385 6.59336 3.71364 6.50008 4.00002 6.50008H15.7334H16.9405L16.0869 5.64653L15.0202 4.57986C14.6822 4.24179 14.6822 3.75837 15.0202 3.4203C15.3583 3.08223 15.8417 3.08223 16.1798 3.4203L19.5131 6.75363C19.8512 7.09171 19.8512 7.57512 19.5131 7.91319L16.1798 11.2465C16.076 11.3503 15.992 11.4083 15.9136 11.4432C15.8374 11.4771 15.7417 11.5001 15.6 11.5001C15.3136 11.5001 15.1139 11.4068 14.9869 11.2799C14.86 11.1529 14.7667 10.9531 14.7667 10.6667C14.7667 10.5251 14.7897 10.4294 14.8236 10.3532C14.8584 10.2747 14.9164 10.1908 15.0202 10.087L16.0869 9.0203L16.9405 8.16675H15.7334H5.33335H4.83335V8.66675V23.3334ZM27.1667 8.66675V8.16675H26.6667H24.6667C24.3803 8.16675 24.1805 8.07347 24.0536 7.94653C23.9266 7.81958 23.8334 7.61979 23.8334 7.33342C23.8334 7.04704 23.9266 6.84725 24.0536 6.7203C24.1805 6.59336 24.3803 6.50008 24.6667 6.50008H28C28.2864 6.50008 28.4862 6.59336 28.6131 6.7203C28.7401 6.84725 28.8334 7.04704 28.8334 7.33342V24.6667C28.8334 24.9531 28.7401 25.1529 28.6131 25.2799C28.4862 25.4068 28.2864 25.5001 28 25.5001H15.4667H14.2596L15.1131 26.3536L16.1798 27.4203C16.5179 27.7584 16.5179 28.2418 16.1798 28.5799C16.076 28.6837 15.992 28.7417 15.9136 28.7765C15.8374 28.8104 15.7417 28.8334 15.6 28.8334C15.4584 28.8334 15.3627 28.8104 15.2864 28.7765C15.208 28.7417 15.1241 28.6837 15.0202 28.5799L11.6869 25.2465C11.3488 24.9085 11.3488 24.425 11.6869 24.087L15.0202 20.7536C15.3583 20.4156 15.8417 20.4156 16.1798 20.7536C16.5179 21.0917 16.5179 21.5751 16.1798 21.9132L15.1131 22.9799L14.2596 23.8334H15.4667H26.6667H27.1667V23.3334V8.66675Z" fill="#6F7B8E" stroke="#6F7B8E"/>
</svg>
