<svg width="16" height="16" viewBox="0 0 16 16" fill="none" xmlns="http://www.w3.org/2000/svg">
<path d="M7.44443 8.16853C7.60888 8.05865 7.80222 8 8 8C8.26522 8 8.51957 8.10536 8.70711 8.29289C8.89464 8.48043 9 8.73478 9 9C9 9.19778 8.94135 9.39112 8.83147 9.55557C8.72159 9.72002 8.56541 9.84819 8.38268 9.92388C8.19996 9.99957 7.99889 10.0194 7.80491 9.98079C7.61093 9.9422 7.43275 9.84696 7.29289 9.70711C7.15304 9.56725 7.0578 9.38907 7.01922 9.19509C6.98063 9.00111 7.00043 8.80004 7.07612 8.61732C7.15181 8.43459 7.27998 8.27841 7.44443 8.16853Z" fill="#6F7B8E"/>
</svg>
