<svg width="7" height="8" viewBox="0 0 7 8" fill="none" xmlns="http://www.w3.org/2000/svg">
<path d="M3.04732 0.337738C3.18111 -0.112523 3.81879 -0.112522 3.95257 0.337738L4.43364 1.95679C4.49316 2.15712 4.67728 2.29449 4.88626 2.29449H6.52679C6.97393 2.29449 7.17062 2.85822 6.82052 3.13637L5.42278 4.24688C5.27189 4.36677 5.209 4.56633 5.26389 4.75107L5.78033 6.48918C5.91183 6.93175 5.39546 7.28057 5.03397 6.99337L3.79368 6.00795C3.62169 5.87131 3.3782 5.87131 3.20622 6.00795L1.96592 6.99337C1.60443 7.28057 1.08807 6.93175 1.21957 6.48918L1.73601 4.75107C1.7909 4.56633 1.72801 4.36677 1.57711 4.24688L0.179374 3.13637C-0.170719 2.85822 0.0259638 2.29449 0.473102 2.29449H2.11363C2.32261 2.29449 2.50674 2.15712 2.56626 1.95679L3.04732 0.337738Z" fill="#F54748"/>
</svg>
