<svg width="8" height="8" viewBox="0 0 8 8" fill="none" xmlns="http://www.w3.org/2000/svg">
<path d="M3.48837 0.371841C3.64941 -0.123784 4.35059 -0.123784 4.51163 0.371841L5.08701 2.14268C5.15903 2.36433 5.36558 2.5144 5.59864 2.5144H7.46061C7.98174 2.5144 8.19842 3.18126 7.77681 3.48758L6.27044 4.58202C6.0819 4.719 6.003 4.96182 6.07502 5.18347L6.6504 6.95431C6.81144 7.44994 6.24418 7.86208 5.82257 7.55577L4.3162 6.46132C4.12766 6.32434 3.87234 6.32434 3.6838 6.46132L2.17743 7.55577C1.75582 7.86208 1.18856 7.44994 1.3496 6.95431L1.92498 5.18347C1.997 4.96182 1.9181 4.719 1.72956 4.58202L0.223187 3.48757C-0.198417 3.18126 0.0182592 2.5144 0.53939 2.5144H2.40136C2.63442 2.5144 2.84097 2.36433 2.91299 2.14268L3.48837 0.371841Z" fill="#F54748"/>
</svg>
