<svg width="34" height="24" viewBox="0 0 34 24" fill="none" xmlns="http://www.w3.org/2000/svg">
<path d="M0 16.4813C0 12.4835 1.36053 9.09179 4.08158 6.30622C6.80264 3.49486 10.8314 1.39279 16.1678 0V3.55934C14.5035 4.04939 13.0769 4.68131 11.8881 5.45507C10.7257 6.22884 9.80109 7.11868 9.11422 8.12458C8.45377 9.10469 8.12354 10.0461 8.12354 10.9488C8.12354 11.5421 8.32168 12.045 8.71795 12.4577C9.14064 12.8446 9.9596 13.3475 11.1748 13.9665C13.209 15.024 14.2261 16.6231 14.2261 18.7639C14.2261 20.3372 13.6317 21.6011 12.4429 22.5554C11.2805 23.4839 9.73504 23.9482 7.80653 23.9482C5.56099 23.9482 3.69852 23.2518 2.21911 21.859C0.739705 20.4404 0 18.6478 0 16.4813ZM17.8322 16.4813C17.8322 12.4835 19.1927 9.09179 21.9138 6.30622C24.6348 3.49486 28.6636 1.39279 34 0V3.55934C32.3357 4.04939 30.9091 4.68131 29.7203 5.45507C28.5579 6.22884 27.6333 7.11868 26.9464 8.12458C26.2859 9.10469 25.9557 10.0461 25.9557 10.9488C25.9557 11.5421 26.1538 12.045 26.5501 12.4577C26.9728 12.8446 27.7918 13.3475 29.007 13.9665C31.0412 15.024 32.0583 16.6231 32.0583 18.7639C32.0583 20.3372 31.4639 21.6011 30.2751 22.5554C29.1127 23.4839 27.5672 23.9482 25.6387 23.9482C23.3932 23.9482 21.5307 23.2518 20.0513 21.859C18.5719 20.4404 17.8322 18.6478 17.8322 16.4813Z" fill="#311F09"/>
</svg>
