<svg width="20" height="20" viewBox="0 0 20 20" fill="none" xmlns="http://www.w3.org/2000/svg">
<path d="M9.99996 15.8333C10.1648 15.8333 10.3259 15.7844 10.4629 15.6928C10.6 15.6012 10.7068 15.4711 10.7699 15.3188C10.8329 15.1665 10.8494 14.999 10.8173 14.8373C10.7851 14.6757 10.7058 14.5272 10.5892 14.4107C10.4727 14.2941 10.3242 14.2148 10.1625 14.1826C10.0009 14.1504 9.83333 14.1669 9.68106 14.23C9.52878 14.2931 9.39864 14.3999 9.30707 14.5369C9.2155 14.674 9.16663 14.8351 9.16663 14.9999C9.16663 15.2209 9.25442 15.4329 9.4107 15.5892C9.56698 15.7455 9.77895 15.8333 9.99996 15.8333ZM14.1666 15.8333C14.3314 15.8333 14.4926 15.7844 14.6296 15.6928C14.7666 15.6012 14.8735 15.4711 14.9365 15.3188C14.9996 15.1665 15.0161 14.999 14.9839 14.8373C14.9518 14.6757 14.8724 14.5272 14.7559 14.4107C14.6393 14.2941 14.4909 14.2148 14.3292 14.1826C14.1676 14.1504 14 14.1669 13.8477 14.23C13.6955 14.2931 13.5653 14.3999 13.4737 14.5369C13.3822 14.674 13.3333 14.8351 13.3333 14.9999C13.3333 15.2209 13.4211 15.4329 13.5774 15.5892C13.7337 15.7455 13.9456 15.8333 14.1666 15.8333ZM14.1666 12.4999C14.3314 12.4999 14.4926 12.451 14.6296 12.3595C14.7666 12.2679 14.8735 12.1378 14.9365 11.9855C14.9996 11.8332 15.0161 11.6657 14.9839 11.504C14.9518 11.3424 14.8724 11.1939 14.7559 11.0773C14.6393 10.9608 14.4909 10.8814 14.3292 10.8493C14.1676 10.8171 14 10.8336 13.8477 10.8967C13.6955 10.9598 13.5653 11.0666 13.4737 11.2036C13.3822 11.3406 13.3333 11.5018 13.3333 11.6666C13.3333 11.8876 13.4211 12.0996 13.5774 12.2558C13.7337 12.4121 13.9456 12.4999 14.1666 12.4999ZM9.99996 12.4999C10.1648 12.4999 10.3259 12.451 10.4629 12.3595C10.6 12.2679 10.7068 12.1378 10.7699 11.9855C10.8329 11.8332 10.8494 11.6657 10.8173 11.504C10.7851 11.3424 10.7058 11.1939 10.5892 11.0773C10.4727 10.9608 10.3242 10.8814 10.1625 10.8493C10.0009 10.8171 9.83333 10.8336 9.68106 10.8967C9.52878 10.9598 9.39864 11.0666 9.30707 11.2036C9.2155 11.3406 9.16663 11.5018 9.16663 11.6666C9.16663 11.8876 9.25442 12.0996 9.4107 12.2558C9.56698 12.4121 9.77895 12.4999 9.99996 12.4999ZM15.8333 2.49992H15V1.66659C15 1.44557 14.9122 1.23361 14.7559 1.07733C14.5996 0.921049 14.3876 0.833252 14.1666 0.833252C13.9456 0.833252 13.7337 0.921049 13.5774 1.07733C13.4211 1.23361 13.3333 1.44557 13.3333 1.66659V2.49992H6.66663V1.66659C6.66663 1.44557 6.57883 1.23361 6.42255 1.07733C6.26627 0.921049 6.05431 0.833252 5.83329 0.833252C5.61228 0.833252 5.40032 0.921049 5.24404 1.07733C5.08776 1.23361 4.99996 1.44557 4.99996 1.66659V2.49992H4.16663C3.50358 2.49992 2.8677 2.76331 2.39886 3.23215C1.93002 3.70099 1.66663 4.33688 1.66663 4.99992V16.6666C1.66663 17.3296 1.93002 17.9655 2.39886 18.4344C2.8677 18.9032 3.50358 19.1666 4.16663 19.1666H15.8333C16.4963 19.1666 17.1322 18.9032 17.6011 18.4344C18.0699 17.9655 18.3333 17.3296 18.3333 16.6666V4.99992C18.3333 4.33688 18.0699 3.70099 17.6011 3.23215C17.1322 2.76331 16.4963 2.49992 15.8333 2.49992ZM16.6666 16.6666C16.6666 16.8876 16.5788 17.0996 16.4225 17.2558C16.2663 17.4121 16.0543 17.4999 15.8333 17.4999H4.16663C3.94561 17.4999 3.73365 17.4121 3.57737 17.2558C3.42109 17.0996 3.33329 16.8876 3.33329 16.6666V9.16658H16.6666V16.6666ZM16.6666 7.49992H3.33329V4.99992C3.33329 4.7789 3.42109 4.56694 3.57737 4.41066C3.73365 4.25438 3.94561 4.16658 4.16663 4.16658H4.99996V4.99992C4.99996 5.22093 5.08776 5.43289 5.24404 5.58917C5.40032 5.74545 5.61228 5.83325 5.83329 5.83325C6.05431 5.83325 6.26627 5.74545 6.42255 5.58917C6.57883 5.43289 6.66663 5.22093 6.66663 4.99992V4.16658H13.3333V4.99992C13.3333 5.22093 13.4211 5.43289 13.5774 5.58917C13.7337 5.74545 13.9456 5.83325 14.1666 5.83325C14.3876 5.83325 14.5996 5.74545 14.7559 5.58917C14.9122 5.43289 15 5.22093 15 4.99992V4.16658H15.8333C16.0543 4.16658 16.2663 4.25438 16.4225 4.41066C16.5788 4.56694 16.6666 4.7789 16.6666 4.99992V7.49992ZM5.83329 12.4999C5.99811 12.4999 6.15923 12.451 6.29627 12.3595C6.43331 12.2679 6.54012 12.1378 6.60319 11.9855C6.66627 11.8332 6.68277 11.6657 6.65061 11.504C6.61846 11.3424 6.53909 11.1939 6.42255 11.0773C6.306 10.9608 6.15752 10.8814 5.99587 10.8493C5.83422 10.8171 5.66666 10.8336 5.51439 10.8967C5.36212 10.9598 5.23197 11.0666 5.1404 11.2036C5.04883 11.3406 4.99996 11.5018 4.99996 11.6666C4.99996 11.8876 5.08776 12.0996 5.24404 12.2558C5.40032 12.4121 5.61228 12.4999 5.83329 12.4999ZM5.83329 15.8333C5.99811 15.8333 6.15923 15.7844 6.29627 15.6928C6.43331 15.6012 6.54012 15.4711 6.60319 15.3188C6.66627 15.1665 6.68277 14.999 6.65061 14.8373C6.61846 14.6757 6.53909 14.5272 6.42255 14.4107C6.306 14.2941 6.15752 14.2148 5.99587 14.1826C5.83422 14.1504 5.66666 14.1669 5.51439 14.23C5.36212 14.2931 5.23197 14.3999 5.1404 14.5369C5.04883 14.674 4.99996 14.8351 4.99996 14.9999C4.99996 15.2209 5.08776 15.4329 5.24404 15.5892C5.40032 15.7455 5.61228 15.8333 5.83329 15.8333Z" fill="#6F7B8E"/>
</svg>
