<svg width="16" height="16" viewBox="0 0 16 16" fill="none" xmlns="http://www.w3.org/2000/svg">
<path d="M8.93996 8.00016L11.8066 5.14016C11.9322 5.01463 12.0027 4.84437 12.0027 4.66683C12.0027 4.4893 11.9322 4.31903 11.8066 4.1935C11.6811 4.06796 11.5108 3.99744 11.3333 3.99744C11.1558 3.99744 10.9855 4.06796 10.86 4.1935L7.99996 7.06016L5.13996 4.1935C5.01442 4.06796 4.84416 3.99744 4.66663 3.99744C4.48909 3.99744 4.31883 4.06796 4.19329 4.1935C4.06776 4.31903 3.99723 4.4893 3.99723 4.66683C3.99723 4.84437 4.06776 5.01463 4.19329 5.14016L7.05996 8.00016L4.19329 10.8602C4.13081 10.9221 4.08121 10.9959 4.04737 11.0771C4.01352 11.1584 3.99609 11.2455 3.99609 11.3335C3.99609 11.4215 4.01352 11.5086 4.04737 11.5899C4.08121 11.6711 4.13081 11.7449 4.19329 11.8068C4.25527 11.8693 4.329 11.9189 4.41024 11.9528C4.49148 11.9866 4.57862 12.004 4.66663 12.004C4.75463 12.004 4.84177 11.9866 4.92301 11.9528C5.00425 11.9189 5.07798 11.8693 5.13996 11.8068L7.99996 8.94017L10.86 11.8068C10.9219 11.8693 10.9957 11.9189 11.0769 11.9528C11.1581 11.9866 11.2453 12.004 11.3333 12.004C11.4213 12.004 11.5084 11.9866 11.5897 11.9528C11.6709 11.9189 11.7447 11.8693 11.8066 11.8068C11.8691 11.7449 11.9187 11.6711 11.9526 11.5899C11.9864 11.5086 12.0038 11.4215 12.0038 11.3335C12.0038 11.2455 11.9864 11.1584 11.9526 11.0771C11.9187 10.9959 11.8691 10.9221 11.8066 10.8602L8.93996 8.00016Z" fill="#6F7B8E"/>
</svg>
