<svg width="34" height="24" viewBox="0 0 34 24" fill="none" xmlns="http://www.w3.org/2000/svg">
<path d="M34 7.46688C34 11.4647 32.6395 14.8564 29.9184 17.6419C27.1974 20.4533 23.1686 22.5554 17.8322 23.9482V20.3888C19.4965 19.8988 20.9231 19.2669 22.1119 18.4931C23.2743 17.7193 24.1989 16.8295 24.8858 15.8236C25.5462 14.8435 25.8765 13.9021 25.8765 12.9993C25.8765 12.4061 25.6783 11.9032 25.2821 11.4905C24.8594 11.1036 24.0404 10.6006 22.8252 9.98163C20.791 8.92414 19.7739 7.32502 19.7739 5.18426C19.7739 3.61093 20.3683 2.3471 21.5571 1.39279C22.7195 0.464262 24.265 0 26.1935 0C28.439 0 30.3015 0.696394 31.7809 2.08918C33.2603 3.50776 34 5.30032 34 7.46688ZM16.1678 7.46688C16.1678 11.4647 14.8073 14.8564 12.0862 17.6419C9.36519 20.4533 5.33644 22.5554 0 23.9482V20.3888C1.66434 19.8988 3.09091 19.2669 4.27972 18.4931C5.44211 17.7193 6.36674 16.8295 7.05361 15.8236C7.71406 14.8435 8.04429 13.9021 8.04429 12.9993C8.04429 12.4061 7.84615 11.9032 7.44988 11.4905C7.02719 11.1036 6.20824 10.6006 4.99301 9.98163C2.95882 8.92414 1.94173 7.32502 1.94173 5.18426C1.94173 3.61093 2.53613 2.3471 3.72494 1.39279C4.88733 0.464262 6.43279 0 8.36131 0C10.6068 0 12.4693 0.696394 13.9487 2.08918C15.4281 3.50776 16.1678 5.30032 16.1678 7.46688Z" fill="#311F09"/>
</svg>
