<svg width="32" height="32" viewBox="0 0 32 32" fill="none" xmlns="http://www.w3.org/2000/svg">
<path d="M12 27.1667H12.5V26.6667V20.0001V19.5001H12H5.33335H4.83335V20.0001V26.6667V27.1667H5.33335H12ZM3.41077 28.5893L3.05721 28.9429L3.41076 28.5893C3.25448 28.4331 3.16669 28.2211 3.16669 28.0001V18.6667C3.16669 18.4457 3.25448 18.2338 3.41076 18.0775C3.56705 17.9212 3.77901 17.8334 4.00002 17.8334H13.3334C13.5544 17.8334 13.7663 17.9212 13.9226 18.0775C14.0789 18.2338 14.1667 18.4457 14.1667 18.6667V28.0001C14.1667 28.2211 14.0789 28.4331 13.9226 28.5893C13.7663 28.7456 13.5544 28.8334 13.3334 28.8334H4.00002C3.77901 28.8334 3.56704 28.7456 3.41077 28.5893ZM26.6667 12.5001H27.1667V12.0001V5.33341V4.83341H26.6667H20H19.5V5.33341V12.0001V12.5001H20H26.6667ZM28.5893 3.41083L28.9422 3.05787L28.5893 3.41083C28.7456 3.56711 28.8334 3.77907 28.8334 4.00008V13.3334C28.8334 13.5544 28.7456 13.7664 28.5893 13.9227C28.433 14.0789 28.221 14.1667 28 14.1667H18.6667C18.4457 14.1667 18.2337 14.079 18.0774 13.9227C17.9212 13.7664 17.8334 13.5544 17.8334 13.3334V4.00008C17.8334 3.77907 17.9212 3.56711 18.0774 3.41083C18.2337 3.25455 18.4457 3.16675 18.6667 3.16675H28C28.221 3.16675 28.433 3.25455 28.5893 3.41083ZM26.6667 27.1667H27.1667V26.6667V20.0001V19.5001H26.6667H20H19.5V20.0001V26.6667V27.1667H20H26.6667ZM28.5893 28.5893L28.9428 28.9429L28.5893 28.5893C28.433 28.7456 28.221 28.8334 28 28.8334H18.6667C18.4457 28.8334 18.2337 28.7456 18.0774 28.5893C17.9212 28.4331 17.8334 28.2211 17.8334 28.0001V18.6667C17.8334 18.4457 17.9212 18.2338 18.0774 18.0775C18.2337 17.9212 18.4457 17.8334 18.6667 17.8334H28C28.221 17.8334 28.433 17.9212 28.5893 18.0775C28.7456 18.2338 28.8334 18.4457 28.8334 18.6667V28.0001C28.8334 28.2211 28.7456 28.4331 28.5893 28.5893ZM12 12.5001H12.5V12.0001V5.33341V4.83341H12H5.33335H4.83335V5.33341V12.0001V12.5001H5.33335H12ZM4.00002 3.16675H13.3334C13.5544 3.16675 13.7663 3.25455 13.9226 3.41083C14.0789 3.56711 14.1667 3.77907 14.1667 4.00008V13.3334C14.1667 13.5544 14.0789 13.7664 13.9226 13.9227C13.7663 14.079 13.5544 14.1667 13.3334 14.1667H4.00002C3.77901 14.1667 3.56704 14.079 3.41076 13.9227C3.25448 13.7664 3.16669 13.5544 3.16669 13.3334V4.00008C3.16669 3.77907 3.25448 3.56711 3.41076 3.41083C3.56704 3.25455 3.77901 3.16675 4.00002 3.16675Z" fill="#6F7B8E" stroke="#6F7B8E"/>
</svg>
