<svg width="32" height="32" viewBox="0 0 32 32" fill="none" xmlns="http://www.w3.org/2000/svg">
<path d="M13.3334 20H9.33335C7.06669 20 5.33335 18.2667 5.33335 16C5.33335 13.7334 7.06669 12 9.33335 12H13.3334C14.1334 12 14.6667 11.4667 14.6667 10.6667C14.6667 9.86671 14.1334 9.33337 13.3334 9.33337H9.33335C5.60002 9.33337 2.66669 12.2667 2.66669 16C2.66669 19.7334 5.60002 22.6667 9.33335 22.6667H13.3334C14.1334 22.6667 14.6667 22.1334 14.6667 21.3334C14.6667 20.5334 14.1334 20 13.3334 20ZM22.6667 9.33337H18.6667C17.8667 9.33337 17.3334 9.86671 17.3334 10.6667C17.3334 11.4667 17.8667 12 18.6667 12H22.6667C24.9334 12 26.6667 13.7334 26.6667 16C26.6667 18.2667 24.9334 20 22.6667 20H18.6667C17.8667 20 17.3334 20.5334 17.3334 21.3334C17.3334 22.1334 17.8667 22.6667 18.6667 22.6667H22.6667C26.4 22.6667 29.3334 19.7334 29.3334 16C29.3334 12.2667 26.4 9.33337 22.6667 9.33337ZM10.6667 16C10.6667 16.8 11.2 17.3334 12 17.3334H20C20.8 17.3334 21.3334 16.8 21.3334 16C21.3334 15.2 20.8 14.6667 20 14.6667H12C11.2 14.6667 10.6667 15.2 10.6667 16Z" fill="#173F7C"/>
</svg>
