<svg width="32" height="32" viewBox="0 0 32 32" fill="none" xmlns="http://www.w3.org/2000/svg">
<path d="M22.6665 14.6666H12.5465L16.9465 10.28C17.1976 10.0289 17.3386 9.68836 17.3386 9.3333C17.3386 8.97823 17.1976 8.6377 16.9465 8.38663C16.6954 8.13556 16.3549 7.99451 15.9999 7.99451C15.6448 7.99451 15.3043 8.13556 15.0532 8.38663L8.38652 15.0533C8.26513 15.1801 8.16998 15.3296 8.10652 15.4933C7.97316 15.8179 7.97316 16.182 8.10652 16.5066C8.16998 16.6703 8.26513 16.8198 8.38652 16.9466L15.0532 23.6133C15.1771 23.7383 15.3246 23.8375 15.4871 23.9052C15.6496 23.9728 15.8238 24.0077 15.9999 24.0077C16.1759 24.0077 16.3501 23.9728 16.5126 23.9052C16.6751 23.8375 16.8226 23.7383 16.9465 23.6133C17.0715 23.4893 17.1707 23.3419 17.2384 23.1794C17.3061 23.0169 17.3409 22.8426 17.3409 22.6666C17.3409 22.4906 17.3061 22.3163 17.2384 22.1539C17.1707 21.9914 17.0715 21.8439 16.9465 21.72L12.5465 17.3333H22.6665C23.0201 17.3333 23.3593 17.1928 23.6093 16.9428C23.8594 16.6927 23.9999 16.3536 23.9999 16C23.9999 15.6463 23.8594 15.3072 23.6093 15.0572C23.3593 14.8071 23.0201 14.6666 22.6665 14.6666Z" fill="white"/>
</svg>
