<svg width="8" height="8" viewBox="0 0 8 8" fill="none" xmlns="http://www.w3.org/2000/svg">
<path d="M3.48837 0.37171C3.64941 -0.123915 4.35059 -0.123915 4.51163 0.37171L5.08701 2.14255C5.15903 2.3642 5.36558 2.51427 5.59864 2.51427H7.46061C7.98174 2.51427 8.19842 3.18113 7.77681 3.48744L6.27044 4.58189C6.0819 4.71887 6.003 4.96169 6.07502 5.18334L6.6504 6.95418C6.81144 7.44981 6.24418 7.86195 5.82257 7.55563L4.3162 6.46119C4.12766 6.32421 3.87234 6.32421 3.6838 6.46119L2.17743 7.55563C1.75582 7.86195 1.18856 7.44981 1.3496 6.95418L1.92498 5.18334C1.997 4.96169 1.9181 4.71887 1.72956 4.58189L0.223187 3.48744C-0.198417 3.18113 0.0182592 2.51427 0.53939 2.51427H2.40136C2.63442 2.51427 2.84097 2.3642 2.91299 2.14255L3.48837 0.37171Z" fill="#F54748"/>
</svg>
