<svg width="8" height="8" viewBox="0 0 8 8" fill="none" xmlns="http://www.w3.org/2000/svg">
<path d="M3.48824 0.371807C3.64932 -0.123948 4.35068 -0.123948 4.51176 0.371807L5.08729 2.14312C5.15933 2.36482 5.36594 2.51493 5.59906 2.51493H7.46152C7.98279 2.51493 8.19952 3.18197 7.7778 3.48836L6.27104 4.58309C6.08244 4.72011 6.00353 4.96299 6.07557 5.1847L6.6511 6.95601C6.81218 7.45176 6.24477 7.86401 5.82305 7.55762L4.31629 6.46289C4.12769 6.32587 3.87231 6.32587 3.68371 6.46289L2.17695 7.55762C1.75523 7.86401 1.18782 7.45176 1.3489 6.95601L1.92443 5.1847C1.99647 4.96299 1.91756 4.72011 1.72896 4.58309L0.222195 3.48836C-0.19952 3.18197 0.017213 2.51493 0.538481 2.51493H2.40094C2.63406 2.51493 2.84067 2.36482 2.91271 2.14312L3.48824 0.371807Z" fill="#F54748"/>
</svg>
